# xmcd
#
# Track frame offsets: 
#        150
#        4015
#        21900
#        25017
#        43671
#        62424
#        82853
#        84975
#        103604
#        123422
#        143835
#        166741
#        185131
#        209814
#        224093
#        240667
#
# Disc length: 3519 seconds
#
# Revision: 0
# Processed by: cddbd v1.5.2PL0 Copyright (c) Steve Scherf et al.
# Submitted via: ExactAudioCopy v0.99pb4
#
DISCID=d60dbd10
DTITLE=Plunky Oneness - Got To Move Something [Disc 1]
DYEAR=2002
DGENRE=Jazz
TTITLE0=Drastic Measures
TTITLE1=Funk U Up
TTITLE2=More Drastic Measures
TTITLE3=Got To Move Something
TTITLE4=You Make It Happen
TTITLE5=Will You Smile
TTITLE6=Loose Interlude
TTITLE7=Special Moments Special Friend
TTITLE8=The Reasons I Adore You
TTITLE9=Play It Straight
TTITLE10=Up and Down
TTITLE11=Oh So Mysterioso
TTITLE12=Dogmas and Dog-Isms
TTITLE13=Another Way To Get Loose
TTITLE14=Everything Is Gonna Be Alright
TTITLE15=Funk U Up (Reprise)
EXTD=
EXTT0=
EXTT1=
EXTT2=
EXTT3=
EXTT4=
EXTT5=
EXTT6=
EXTT7=
EXTT8=
EXTT9=
EXTT10=
EXTT11=
EXTT12=
EXTT13=
EXTT14=
EXTT15=
PLAYORDER=
